<svg xmlns:rdf="http://www.w3.org/1999/02/22-rdf-syntax-ns#" xmlns="http://www.w3.org/2000/svg" height="30.87mm" width="149.5mm" version="1.1" enable-background="new " xmlns:cc="http://creativecommons.org/ns#" xmlns:dc="http://purl.org/dc/elements/1.1/" viewBox="0 0 529.72133 109.38226">
 <g transform="translate(-69.129,-160.13)">
  <text style="word-spacing:0px;letter-spacing:0px" xml:space="preserve" font-size="113.12px" y="241.13689" x="59.972496" font-family="Laksaman" line-height="125%" fill="#000000"><tspan y="241.13689" x="59.972496"><tspan y="241.13689" x="59.972496" font-family="Laksaman">Nip<tspan fill="none">o</tspan>nismo</tspan></tspan></text>
  <g transform="matrix(2.8279,0,0,2.8279,-129.9,-184.55)">
   <path d="m148.64 140.37c0 3.04-0.97333 5.5867-2.92 7.64-1.92 2.0533-4.3867 3.08-7.4 3.08-3.04 0-5.52-1.0133-7.44-3.04-1.92-2.0533-2.88-4.6133-2.88-7.68 0-3.04 0.97333-5.5867 2.92-7.64s4.4133-3.08 7.4-3.08c3.0133 0 5.48 1.0267 7.4 3.08 1.9467 2.0533 2.92 4.6 2.92 7.64z" fill="#f00"/>
  </g>
 </g>
</svg>
